{
    "asset": {
        "version": "2.0",
        "generator": "Open Asset Import Library (assimp v5.4.0)"
    },
    "extensionsUsed": [
        "KHR_materials_volume",
        "FB_ngon_encoding"
    ],
    "accessors": [
        {
            "bufferView": 0,
            "byteOffset": 0,
            "componentType": 5126,
            "count": 47686,
            "type": "VEC3",
            "max": [
                0.5982261896133423,
                1.002479076385498,
                0.8506689667701721
            ],
            "min": [
                -0.9346453547477722,
                -0.9230160713195801,
                -0.9516019821166992
            ]
        },
        {
            "bufferView": 1,
            "byteOffset": 0,
            "componentType": 5126,
            "count": 47686,
            "type": "VEC3",
            "max": [
                0.9999997019767761,
                0.9999998211860657,
                0.9999991059303284
            ],
            "min": [
                -0.9999939799308777,
                -0.9999990463256836,
                -0.9999998211860657
            ]
        },
        {
            "bufferView": 2,
            "byteOffset": 0,
            "componentType": 5126,
            "count": 47686,
            "type": "VEC4",
            "max": [
                0.8666666746139526,
                0.8313725590705872,
                0.7843137383460999,
                1.0
            ],
            "min": [
                0.01568627543747425,
                0.01568627543747425,
                0.0117647061124444,
                1.0
            ]
        },
        {
            "bufferView": 3,
            "byteOffset": 0,
            "componentType": 5125,
            "count": 284712,
            "type": "SCALAR",
            "max": [
                47685
            ],
            "min": [
                0
            ]
        }
    ],
    "buffers": [
        {
            "byteLength": 3046288,
            "uri": "tmpqjnrme7r_0.bin"
        }
    ],
    "bufferViews": [
        {
            "buffer": 0,
            "byteOffset": 0,
            "byteLength": 572232,
            "target": 34962
        },
        {
            "buffer": 0,
            "byteOffset": 572232,
            "byteLength": 572232,
            "target": 34962
        },
        {
            "buffer": 0,
            "byteOffset": 1144464,
            "byteLength": 762976,
            "target": 34962
        },
        {
            "buffer": 0,
            "byteOffset": 1907440,
            "byteLength": 1138848,
            "target": 34963
        }
    ],
    "materials": [
        {
            "name": "Mat_1"
        }
    ],
    "meshes": [
        {
            "name": "meshes[0]",
            "primitives": [
                {
                    "mode": 4,
                    "material": 0,
                    "indices": 3,
                    "attributes": {
                        "POSITION": 0,
                        "NORMAL": 1,
                        "COLOR_0": 2
                    }
                }
            ]
        }
    ],
    "nodes": [
        {
            "name": "tmpqjnrme7r",
            "children": [
                1
            ]
        },
        {
            "name": "world",
            "children": [
                2
            ],
            "extras": {
                "name": "world"
            }
        },
        {
            "name": "geometry_0",
            "mesh": 0,
            "extras": {
                "processed": true,
                "name": "geometry_0"
            }
        }
    ],
    "scenes": [
        {
            "nodes": [
                0
            ]
        }
    ],
    "scene": 0
}