{
  "accessors": [
    {
      "name": "group_0_1650274_0_positions",
      "componentType": 5126,
      "count": 1481,
      "min": [
        -45.29999923706055,
        -35.17900085449219,
        33.9640007019043
      ],
      "max": [
        -6.300000190734863,
        3.1549999713897705,
        70.36409759521484
      ],
      "type": "VEC3",
      "bufferView": 0,
      "byteOffset": 0
    },
    {
      "name": "group_0_1650274_0_indices",
      "componentType": 5123,
      "count": 7374,
      "min": [
        0
      ],
      "max": [
        1480
      ],
      "type": "SCALAR",
      "bufferView": 1,
      "byteOffset": 0
    },
    {
      "name": "group_0_12568524_0_positions",
      "componentType": 5126,
      "count": 3189,
      "min": [
        -47.29999923706055,
        -36.29999923706055,
        0.2969000041484833
      ],
      "max": [
        -2.7260000705718994,
        4.367000102996826,
        63.612998962402344
      ],
      "type": "VEC3",
      "bufferView": 0,
      "byteOffset": 17772
    },
    {
      "name": "group_0_12568524_0_indices",
      "componentType": 5123,
      "count": 17304,
      "min": [
        0
      ],
      "max": [
        3188
      ],
      "type": "SCALAR",
      "bufferView": 1,
      "byteOffset": 14748
    },
    {
      "name": "group_0_16448250_0_positions",
      "componentType": 5126,
      "count": 222,
      "min": [
        -47.2130012512207,
        -36.2130012512207,
        0
      ],
      "max": [
        -6.820000171661377,
        4.28000020980835,
        0.296999990940094
      ],
      "type": "VEC3",
      "bufferView": 0,
      "byteOffset": 56040
    },
    {
      "name": "group_0_16448250_0_indices",
      "componentType": 5123,
      "count": 930,
      "min": [
        0
      ],
      "max": [
        221
      ],
      "type": "SCALAR",
      "bufferView": 1,
      "byteOffset": 49356
    }
  ],
  "asset": {
    "generator": "obj2gltf",
    "version": "2.0"
  },
  "buffers": [
    {
      "name": "chair",
      "byteLength": 109920,
      "uri": "data:application/octet-stream;base64,"
    }
  ],
  "bufferViews": [
    {
      "name": "bufferView_0",
      "buffer": 0,
      "byteLength": 58704,
      "byteOffset": 0,
      "byteStride": 12,
      "target": 34962
    },
    {
      "name": "bufferView_1",
      "buffer": 0,
      "byteLength": 51216,
      "byteOffset": 58704,
      "target": 34963
    }
  ],
  "materials": [
    {
      "name": "color_1650274",
      "pbrMetallicRoughness": {
        "baseColorFactor": [
          0.5,
          0.5,
          0.5,
          1
        ],
        "metallicFactor": 0,
        "roughnessFactor": 1
      },
      "emissiveFactor": [
        0,
        0,
        0
      ],
      "alphaMode": "OPAQUE",
      "doubleSided": false
    },
    {
      "name": "color_12568524",
      "pbrMetallicRoughness": {
        "baseColorFactor": [
          0.5,
          0.5,
          0.5,
          1
        ],
        "metallicFactor": 0,
        "roughnessFactor": 1
      },
      "emissiveFactor": [
        0,
        0,
        0
      ],
      "alphaMode": "OPAQUE",
      "doubleSided": false
    },
    {
      "name": "color_16448250",
      "pbrMetallicRoughness": {
        "baseColorFactor": [
          0.5,
          0.5,
          0.5,
          1
        ],
        "metallicFactor": 0,
        "roughnessFactor": 1
      },
      "emissiveFactor": [
        0,
        0,
        0
      ],
      "alphaMode": "OPAQUE",
      "doubleSided": false
    }
  ],
  "meshes": [
    {
      "name": "group_0_1650274",
      "primitives": [
        {
          "attributes": {
            "POSITION": 0
          },
          "indices": 1,
          "material": 0,
          "mode": 4
        }
      ]
    },
    {
      "name": "group_0_12568524",
      "primitives": [
        {
          "attributes": {
            "POSITION": 2
          },
          "indices": 3,
          "material": 1,
          "mode": 4
        }
      ]
    },
    {
      "name": "group_0_16448250",
      "primitives": [
        {
          "attributes": {
            "POSITION": 4
          },
          "indices": 5,
          "material": 2,
          "mode": 4
        }
      ]
    }
  ],
  "nodes": [
    {
      "name": "obj_0",
      "children": [
        1,
        2,
        3
      ]
    },
    {
      "name": "group_0_1650274",
      "mesh": 0
    },
    {
      "name": "group_0_12568524",
      "mesh": 1
    },
    {
      "name": "group_0_16448250",
      "mesh": 2
    }
  ],
  "scene": 0,
  "scenes": [
    {
      "nodes": [
        0
      ]
    }
  ]
}
